<svg version="1.1" id="Layer_1" xmlns="http://www.w3.org/2000/svg" xmlns:xlink="http://www.w3.org/1999/xlink" x="0px" y="0px" width="100%" viewBox="0 0 585 206" enable-background="new 0 0 585 206" xml:space="preserve">
<path fill="#000000" opacity="1.000000" stroke="none" d="
M1.000000,9.000000 
	C1.000000,6.334260 1.000000,3.668520 1.000000,1.002085 
	C195.931320,1.001390 390.862640,1.001390 585.896973,1.001390 
	C585.896973,69.573982 585.896973,138.148163 585.896973,207.000000 
	C438.644135,207.000000 291.288116,207.000000 143.251068,206.658035 
	C145.418015,204.890549 148.265945,203.465027 151.508362,202.023865 
	C154.304962,201.353088 156.707108,200.697937 159.499588,200.022308 
	C161.909576,199.609909 163.929199,199.217987 166.313858,198.764847 
	C168.780289,198.077438 170.881683,197.451233 173.334946,196.873840 
	C174.789032,196.558990 175.891266,196.195297 177.383163,195.870392 
	C180.195984,195.302094 182.619141,194.695023 185.428665,194.055176 
	C187.241806,193.695740 188.668564,193.369064 190.453308,193.026184 
	C191.891144,192.709290 192.971024,192.408630 194.465836,192.068695 
	C197.959030,191.366318 201.037277,190.703217 204.340271,190.004044 
	C204.564987,189.967987 204.999985,189.833939 205.382050,189.894958 
	C207.190536,189.675095 208.616974,189.394211 210.424164,189.072052 
	C212.220016,188.722687 213.635101,188.414627 215.444305,188.067337 
	C216.891052,187.963150 217.943665,187.898178 219.324188,187.879242 
	C220.433777,187.561447 221.215454,187.197617 222.394501,186.894501 
	C223.860428,186.914429 224.928955,186.873627 226.307404,186.883514 
	C227.115509,186.636322 227.613678,186.338455 228.500885,186.025864 
	C229.925598,185.951782 230.961288,185.892441 232.325043,185.878601 
	C233.435379,185.560532 234.217651,185.196991 235.347626,184.890472 
	C237.392044,184.675964 239.817093,184.997482 238.062469,181.641602 
	C237.612335,180.546967 237.223129,179.776169 236.878754,178.668915 
	C236.301392,177.188934 235.679214,176.045395 235.032928,174.565933 
	C234.691895,173.454178 234.374954,172.678329 234.015503,171.672852 
	C233.972977,171.443207 233.833038,170.997559 233.878769,170.667938 
	C233.324738,169.214539 232.724976,168.090759 232.076385,166.634460 
	C231.723053,165.520676 231.418533,164.739426 231.054642,163.607178 
	C230.344040,161.800232 229.692810,160.344284 229.012329,158.590515 
	C228.673004,157.827133 228.362946,157.361572 228.018219,156.575638 
	C227.601196,155.504425 227.218826,154.753601 226.881104,153.654648 
	C226.557281,152.217392 226.188858,151.128235 225.805359,149.752991 
	C225.232254,148.964264 224.674225,148.461639 224.071899,147.587097 
	C223.296326,145.810257 222.565048,144.405365 221.893204,142.644196 
	C221.580521,141.192047 221.208405,140.096161 220.778900,138.663330 
	C219.852997,136.537170 218.984512,134.747971 218.056366,132.610748 
	C217.015640,130.473724 216.034561,128.684723 215.020294,126.574036 
	C214.602615,125.501099 214.218124,124.749847 213.884674,123.667557 
	C213.331497,122.212807 212.727264,121.089104 212.072311,119.600067 
	C211.044434,117.141785 210.067291,115.048828 209.036438,112.590240 
	C207.699768,109.469864 206.416779,106.715134 205.083115,103.590164 
	C202.344620,94.019798 197.405869,91.602005 190.193283,96.129036 
	C187.508881,97.394882 185.203094,98.672394 182.534180,99.968063 
	C181.444580,99.999237 180.718109,100.012260 180.063187,99.716667 
	C177.564270,93.498703 173.162933,89.666847 167.246536,87.512436 
	C174.567764,85.696815 179.370758,89.342857 183.809250,94.150871 
	C184.481461,94.879028 186.230148,94.613441 187.480911,94.807510 
	C187.383957,93.778992 187.674698,92.183182 187.129501,91.810570 
	C182.207993,88.447098 177.394608,84.723831 172.004990,82.334145 
	C169.407364,81.182404 165.589737,82.580734 164.630417,86.719269 
	C161.228378,86.404770 158.195038,86.204308 155.002899,85.698921 
	C149.260178,80.804749 144.009964,75.713539 138.021606,71.732727 
	C126.236641,63.898556 115.163605,68.608109 105.246277,75.707069 
	C101.385147,78.470924 99.209198,77.740868 96.251892,75.641998 
	C71.952789,58.396351 47.699127,41.086365 23.349293,23.912710 
	C16.032974,18.752598 8.457014,13.960623 1.000000,9.000000 
M240.725235,153.485519 
	C242.767349,151.769135 245.720917,150.393753 246.534973,148.217926 
	C247.088547,146.738297 244.922043,143.923096 243.493469,142.074936 
	C237.389206,134.177826 231.098755,126.424812 224.892487,118.606331 
	C219.596939,111.935127 214.356461,105.219765 209.007843,98.591560 
	C208.121780,97.493530 206.599640,95.378357 206.035980,99.757584 
	C208.477249,105.434341 210.901123,111.118652 213.363174,116.786392 
	C219.921280,131.883347 226.596497,146.930496 233.015869,162.086105 
	C235.704269,168.433228 237.863907,175.004288 240.430344,181.922073 
	C242.039246,178.825272 243.187073,176.084320 244.792023,173.643982 
	C247.623749,169.338287 247.031326,165.535965 244.120377,161.524384 
	C242.439682,159.208221 241.382767,156.439407 240.725235,153.485519 
M83.011360,58.514400 
	C87.768600,62.268482 92.599060,65.934746 97.252014,69.813904 
	C99.559105,71.737328 101.542336,72.264435 104.173508,70.375214 
	C108.644745,67.164803 113.295868,64.204903 118.443169,60.756695 
	C99.607857,41.361485 80.878716,22.075615 61.392204,2.009851 
	C61.187660,4.125771 60.918179,5.061639 61.038914,5.944122 
	C62.678806,17.930527 64.159676,29.946436 66.222855,41.861027 
	C66.666260,44.421658 68.903488,46.998455 70.946030,48.883308 
	C74.540642,52.200417 78.622299,54.989742 83.011360,58.514400 
M457.991577,87.305000 
	C459.601562,78.995323 456.459686,73.444710 450.414673,71.316872 
	C440.940948,67.982124 431.041016,68.844727 421.254944,69.238861 
	C421.254944,86.687408 421.254944,103.600868 421.254944,121.000168 
	C429.113281,121.000168 436.723907,121.011780 444.334503,120.996758 
	C451.270142,120.983070 457.344421,117.274406 458.901642,112.136810 
	C461.413818,103.848396 459.732208,99.078239 453.174377,94.721024 
	C454.754181,92.519249 456.346161,90.300545 457.991577,87.305000 
M308.000610,113.418701 
	C308.000610,115.843597 308.000610,118.268501 308.000610,120.575851 
	C312.426941,120.575851 316.135406,120.575851 320.237183,120.575851 
	C320.237183,113.895393 320.237183,107.637543 320.237183,100.805740 
	C327.017090,100.805740 333.403320,100.805740 339.702698,100.805740 
	C339.702698,97.284569 339.702698,94.359505 339.702698,90.853378 
	C333.036926,90.853378 326.651001,90.853378 320.282349,90.853378 
	C320.282349,86.665047 320.282349,83.073418 320.282349,78.904037 
	C327.586731,78.904037 334.638306,78.904037 341.756195,78.904037 
	C341.756195,75.388802 341.756195,72.463478 341.756195,69.314209 
	C330.480133,69.314209 319.448975,69.314209 308.000610,69.314209 
	C308.000610,83.895279 308.000610,98.167931 308.000610,113.418701 
M370.898407,107.697990 
	C371.631348,110.210739 372.235291,112.769913 373.120148,115.227974 
	C376.479706,124.560928 375.691254,126.176460 365.646423,128.780167 
	C366.132843,131.143097 366.048004,135.236465 367.248749,135.656723 
	C370.033173,136.631256 373.671051,136.540176 376.543549,135.599884 
	C382.240326,133.735092 383.357117,128.168137 385.070740,123.175255 
	C389.619446,109.921944 394.307159,96.716339 399.111938,82.999748 
	C396.806946,82.999748 394.977356,83.181702 393.196716,82.963768 
	C388.808807,82.426758 386.306030,83.422989 385.528442,88.570892 
	C384.769226,93.597504 382.491669,98.394768 380.418762,104.696938 
	C379.284271,100.284256 378.598328,97.436554 377.818665,94.614754 
	C374.543152,82.760078 374.532837,82.761162 363.618896,83.050507 
	C363.296814,83.059052 362.978149,83.194778 362.322540,83.351227 
	C365.056000,91.256081 367.777924,99.127502 370.898407,107.697990 
M526.000122,121.492043 
	C530.406738,108.847115 534.813293,96.202179 539.358459,83.159485 
	C534.871216,83.159485 531.245605,83.159485 527.597595,83.159485 
	C525.549072,89.840958 523.537354,96.402359 521.525635,102.963753 
	C521.192200,102.961037 520.858826,102.958328 520.525391,102.955620 
	C518.540039,96.387848 516.554626,89.820084 514.587402,83.312424 
	C510.684113,83.312424 506.951508,83.312424 502.577850,83.312424 
	C506.628021,94.803047 510.395264,105.864098 514.442261,116.821861 
	C516.601868,122.669373 515.702698,125.384956 510.202515,127.366516 
	C509.169739,127.738586 508.152893,128.154907 507.221619,128.514908 
	C506.696228,137.094345 509.676147,139.278610 517.054871,135.898651 
	C517.919678,135.502502 518.867188,134.867584 519.328552,134.080780 
	C521.605103,130.198517 523.730774,126.227814 526.000122,121.492043 
M499.995789,85.750359 
	C499.182922,84.837471 498.456604,83.255981 497.540894,83.137436 
	C494.826996,82.786095 492.038422,83.011696 488.999115,83.011696 
	C488.999115,91.332245 489.041351,98.968727 488.982361,106.604431 
	C488.950073,110.783043 486.429718,112.943016 482.006927,113.017715 
	C477.597260,113.092178 476.912659,110.447243 476.964661,106.827934 
	C477.076385,99.050613 476.998993,91.270576 476.998993,83.313271 
	C473.121552,83.313271 469.744415,83.313271 466.000031,83.313271 
	C466.000031,91.915695 466.097809,100.210159 465.977570,108.501450 
	C465.787231,121.628975 476.666473,124.060577 485.302246,120.888107 
	C486.463409,120.461510 487.688904,119.643600 488.803986,119.762535 
	C492.344940,120.140228 495.847778,120.875450 500.000031,121.580215 
	C500.000031,109.256310 500.000031,97.982796 499.995789,85.750359 
M347.000244,73.605644 
	C347.000244,89.316437 347.000244,105.027222 347.000244,120.735428 
	C351.344818,120.735428 354.935425,120.735428 358.721802,120.735428 
	C358.721802,102.794197 358.721802,85.116661 358.721802,67.361137 
	C354.721130,67.361137 351.017792,67.361137 347.000275,67.361137 
	C347.000275,69.358658 347.000275,70.998512 347.000244,73.605644 
z" data-index="0" style="opacity: 1; visibility: visible; fill: rgb(255, 255, 255);"></path>
<path fill="#000000" opacity="1.000000" stroke="none" d="
M138.000000,207.000000 
	C92.394119,207.000000 46.788239,207.000000 1.000000,207.000000 
	C1.000000,143.312561 1.000000,79.624931 1.377823,15.284548 
	C3.174117,20.072687 4.480012,25.546432 6.054039,30.941957 
	C6.971812,34.087944 7.713898,37.566040 9.613912,40.078972 
	C12.482746,43.873249 16.294088,46.954903 19.507996,50.523651 
	C19.183268,50.834232 19.055410,50.960575 18.569859,51.041401 
	C16.278334,50.139538 14.344502,49.283192 11.832397,48.170773 
	C12.278925,51.230904 12.603683,53.778748 13.028669,56.309765 
	C14.410397,64.538689 16.069477,72.422897 24.402782,77.098885 
	C28.581692,79.443756 32.023884,83.101570 35.799259,86.165604 
	C35.631573,86.497688 35.463882,86.829773 35.296196,87.161858 
	C30.370556,85.927757 25.444918,84.693665 20.072887,83.347725 
	C21.882622,90.398216 23.730188,96.936584 25.193451,103.559868 
	C25.990194,107.166214 28.117340,108.686172 31.359835,110.097275 
	C41.385681,114.460411 51.201740,119.305611 61.217152,124.019112 
	C60.630032,125.521805 60.350521,126.447731 59.923180,127.299477 
	C53.071564,140.955521 46.162468,154.583038 39.403427,168.284637 
	C38.821331,169.464645 39.204849,171.120987 39.139812,172.556061 
	C40.549152,172.078140 42.316925,171.977692 43.296654,171.047363 
	C45.673637,168.790222 47.525089,165.984818 49.869576,163.687363 
	C59.947243,153.811951 70.079994,143.991516 80.280289,134.242737 
	C93.015732,122.071030 106.719093,111.111488 121.709946,101.817657 
	C130.773499,96.198570 140.115616,91.231720 150.978210,90.555336 
	C148.138000,97.792442 148.313248,104.777863 149.694931,111.908379 
	C148.891739,112.305733 148.394196,112.627220 147.630966,112.969528 
	C146.838318,113.052910 146.311340,113.115486 145.437378,113.148293 
	C144.723770,113.360466 144.357147,113.602417 143.630615,113.901749 
	C142.167938,114.265869 141.065186,114.572617 139.558701,114.923637 
	C137.211761,115.168686 134.406372,114.234413 135.112625,118.328354 
	C135.093964,119.106155 135.130814,119.551888 135.103790,120.370132 
	C135.082245,121.494583 135.124588,122.246529 135.106491,123.327019 
	C135.091339,124.541451 135.136612,125.427338 135.141235,126.508675 
	C135.193787,127.033745 135.286972,127.363373 135.511658,127.975601 
	C135.832626,128.172821 136.022079,128.087433 135.853226,128.061844 
	C135.385193,129.081314 135.275482,130.041016 135.105530,131.397903 
	C135.085678,132.862808 135.126053,133.930511 135.110138,135.330017 
	C135.091705,136.107330 135.129578,136.552826 135.107178,137.395935 
	C135.087234,138.862366 135.127548,139.931183 135.112564,141.337921 
	C135.094299,142.129395 135.131332,142.582932 135.107559,143.417969 
	C135.326187,145.519318 135.605621,147.239197 135.593994,149.177170 
	C135.257294,150.596069 135.211655,151.796844 135.109680,153.330688 
	C135.091354,154.110886 135.129364,154.557999 135.106628,155.430389 
	C135.085754,157.571182 135.125595,159.286697 135.104980,161.374908 
	C135.085068,162.499054 135.125626,163.250519 135.105743,164.374603 
	C135.084213,165.498535 135.123093,166.249893 135.101135,167.426392 
	C135.080261,169.566681 135.120239,171.281845 135.102081,173.330200 
	C135.084000,174.110718 135.124039,174.558014 135.102722,175.439713 
	C135.083557,177.918304 135.125778,179.962479 135.104950,182.431900 
	C135.083160,184.573837 135.124405,186.290543 135.102524,188.440948 
	C135.079559,190.916046 135.119736,192.957428 135.098297,195.430176 
	C134.081940,200.091141 135.966553,203.565369 138.000000,207.000000 
z" data-index="1" style="opacity: 1; visibility: visible; fill: rgb(255, 255, 255);"></path>
<path fill="#0076BE" opacity="1.000000" stroke="none" d="
M150.999634,90.166603 
	C140.115616,91.231720 130.773499,96.198570 121.709946,101.817657 
	C106.719093,111.111488 93.015732,122.071030 80.280289,134.242737 
	C70.079994,143.991516 59.947243,153.811951 49.869576,163.687363 
	C47.525089,165.984818 45.673637,168.790222 43.296654,171.047363 
	C42.316925,171.977692 40.549152,172.078140 39.139812,172.556061 
	C39.204849,171.120987 38.821331,169.464645 39.403427,168.284637 
	C46.162468,154.583038 53.071564,140.955521 59.923180,127.299477 
	C60.350521,126.447731 60.630032,125.521805 61.217152,124.019112 
	C51.201740,119.305611 41.385681,114.460411 31.359835,110.097275 
	C28.117340,108.686172 25.990194,107.166214 25.193451,103.559868 
	C23.730188,96.936584 21.882622,90.398216 20.072887,83.347725 
	C25.444918,84.693665 30.370556,85.927757 35.296196,87.161858 
	C35.463882,86.829773 35.631573,86.497688 35.799259,86.165604 
	C32.023884,83.101570 28.581692,79.443756 24.402782,77.098885 
	C16.069477,72.422897 14.410397,64.538689 13.028669,56.309765 
	C12.603683,53.778748 12.278925,51.230904 11.832397,48.170773 
	C14.344502,49.283192 16.278334,50.139538 18.728256,51.327896 
	C20.331017,52.078037 21.417685,52.496166 22.504354,52.914291 
	C22.602533,52.700806 22.700712,52.487320 22.798893,52.273834 
	C21.767550,51.629028 20.736208,50.984222 19.704865,50.339417 
	C16.294088,46.954903 12.482746,43.873249 9.613912,40.078972 
	C7.713898,37.566040 6.971812,34.087944 6.054039,30.941957 
	C4.480012,25.546432 3.174117,20.072687 1.377823,14.815891 
	C1.000000,13.285642 1.000000,11.571282 1.000000,9.428462 
	C8.457014,13.960623 16.032974,18.752598 23.349293,23.912710 
	C47.699127,41.086365 71.952789,58.396351 96.251892,75.641998 
	C99.209198,77.740868 101.385147,78.470924 105.246277,75.707069 
	C115.163605,68.608109 126.236641,63.898556 138.021606,71.732727 
	C144.009964,75.713539 149.260178,80.804749 154.865555,86.000847 
	C153.591232,87.794006 152.295441,88.980301 150.999634,90.166603 
z" data-index="2" style="opacity: 1;"></path>
<path fill="#CC2839" opacity="1.000000" stroke="none" d="
M138.416656,207.000000 
	C135.966553,203.565369 134.081940,200.091141 135.485504,195.432312 
	C137.892258,195.628983 139.954971,196.039215 141.784882,196.928497 
	C144.970215,198.476471 148.011948,200.319931 151.113876,202.039520 
	C148.265945,203.465027 145.418015,204.890549 142.785034,206.658035 
	C141.611115,207.000000 140.222214,207.000000 138.416656,207.000000 
z" data-index="3" style="opacity: 1;"></path>
<path fill="#ED1B23" opacity="1.000000" stroke="none" d="
M82.755684,58.257233 
	C78.622299,54.989742 74.540642,52.200417 70.946030,48.883308 
	C68.903488,46.998455 66.666260,44.421658 66.222855,41.861027 
	C64.159676,29.946436 62.678806,17.930527 61.038914,5.944122 
	C60.918179,5.061639 61.187660,4.125771 61.392204,2.009851 
	C80.878716,22.075615 99.607857,41.361485 118.443169,60.756695 
	C113.295868,64.204903 108.644745,67.164803 104.173508,70.375214 
	C101.542336,72.264435 99.559105,71.737328 97.252014,69.813904 
	C92.599060,65.934746 87.768600,62.268482 82.755684,58.257233 
z" data-index="4"></path>
<path fill="#ED1B23" opacity="1.000000" stroke="none" d="
M457.964844,87.693420 
	C456.346161,90.300545 454.754181,92.519249 453.174377,94.721024 
	C459.732208,99.078239 461.413818,103.848396 458.901642,112.136810 
	C457.344421,117.274406 451.270142,120.983070 444.334503,120.996758 
	C436.723907,121.011780 429.113281,121.000168 421.254944,121.000168 
	C421.254944,103.600868 421.254944,86.687408 421.254944,69.238861 
	C431.041016,68.844727 440.940948,67.982124 450.414673,71.316872 
	C456.459686,73.444710 459.601562,78.995323 457.964844,87.693420 
M443.673492,111.756104 
	C447.336060,110.364601 449.123535,107.475502 447.797913,103.983887 
	C447.028381,101.956947 444.562531,99.758041 442.464508,99.240837 
	C439.240417,98.446053 435.675995,99.031860 432.245422,99.031860 
	C432.245422,103.652863 432.245422,107.581612 432.245422,111.955353 
	C435.925262,111.955353 439.375122,111.955353 443.673492,111.756104 
M441.924225,79.007355 
	C438.697937,79.007355 435.471649,79.007355 432.385071,79.007355 
	C432.385071,83.428871 432.385071,87.125618 432.385071,90.992805 
	C435.075134,90.992805 437.538696,91.508408 439.644989,90.861237 
	C442.231049,90.066650 445.655518,88.866417 446.672150,86.823616 
	C448.247772,83.657478 446.407318,80.512321 441.924225,79.007355 
z" data-index="5" style="opacity: 1;"></path>
<path fill="#0076BE" opacity="1.000000" stroke="none" d="
M308.000610,112.929642 
	C308.000610,98.167931 308.000610,83.895279 308.000610,69.314209 
	C319.448975,69.314209 330.480133,69.314209 341.756195,69.314209 
	C341.756195,72.463478 341.756195,75.388802 341.756195,78.904037 
	C334.638306,78.904037 327.586731,78.904037 320.282349,78.904037 
	C320.282349,83.073418 320.282349,86.665047 320.282349,90.853378 
	C326.651001,90.853378 333.036926,90.853378 339.702698,90.853378 
	C339.702698,94.359505 339.702698,97.284569 339.702698,100.805740 
	C333.403320,100.805740 327.017090,100.805740 320.237183,100.805740 
	C320.237183,107.637543 320.237183,113.895393 320.237183,120.575851 
	C316.135406,120.575851 312.426941,120.575851 308.000610,120.575851 
	C308.000610,118.268501 308.000610,115.843597 308.000610,112.929642 
z" data-index="6" style="opacity: 1;"></path>
<path fill="#0076BE" opacity="1.000000" stroke="none" d="
M370.699127,107.348457 
	C367.777924,99.127502 365.056000,91.256081 362.322540,83.351227 
	C362.978149,83.194778 363.296814,83.059052 363.618896,83.050507 
	C374.532837,82.761162 374.543152,82.760078 377.818665,94.614754 
	C378.598328,97.436554 379.284271,100.284256 380.418762,104.696938 
	C382.491669,98.394768 384.769226,93.597504 385.528442,88.570892 
	C386.306030,83.422989 388.808807,82.426758 393.196716,82.963768 
	C394.977356,83.181702 396.806946,82.999748 399.111938,82.999748 
	C394.307159,96.716339 389.619446,109.921944 385.070740,123.175255 
	C383.357117,128.168137 382.240326,133.735092 376.543549,135.599884 
	C373.671051,136.540176 370.033173,136.631256 367.248749,135.656723 
	C366.048004,135.236465 366.132843,131.143097 365.646423,128.780167 
	C375.691254,126.176460 376.479706,124.560928 373.120148,115.227974 
	C372.235291,112.769913 371.631348,110.210739 370.699127,107.348457 
z" data-index="7" style="opacity: 1;"></path>
<path fill="#ED1B23" opacity="1.000000" stroke="none" d="
M525.954895,121.890182 
	C523.730774,126.227814 521.605103,130.198517 519.328552,134.080780 
	C518.867188,134.867584 517.919678,135.502502 517.054871,135.898651 
	C509.676147,139.278610 506.696228,137.094345 507.221619,128.514908 
	C508.152893,128.154907 509.169739,127.738586 510.202515,127.366516 
	C515.702698,125.384956 516.601868,122.669373 514.442261,116.821861 
	C510.395264,105.864098 506.628021,94.803047 502.577850,83.312424 
	C506.951508,83.312424 510.684113,83.312424 514.587402,83.312424 
	C516.554626,89.820084 518.540039,96.387848 520.525391,102.955620 
	C520.858826,102.958328 521.192200,102.961037 521.525635,102.963753 
	C523.537354,96.402359 525.549072,89.840958 527.597595,83.159485 
	C531.245605,83.159485 534.871216,83.159485 539.358459,83.159485 
	C534.813293,96.202179 530.406738,108.847115 525.954895,121.890182 
z" data-index="8" style="opacity: 1;"></path>
<path fill="#ED1B23" opacity="1.000000" stroke="none" d="
M499.997925,86.229820 
	C500.000031,97.982796 500.000031,109.256310 500.000031,121.580215 
	C495.847778,120.875450 492.344940,120.140228 488.803986,119.762535 
	C487.688904,119.643600 486.463409,120.461510 485.302246,120.888107 
	C476.666473,124.060577 465.787231,121.628975 465.977570,108.501450 
	C466.097809,100.210159 466.000031,91.915695 466.000031,83.313271 
	C469.744415,83.313271 473.121552,83.313271 476.998993,83.313271 
	C476.998993,91.270576 477.076385,99.050613 476.964661,106.827934 
	C476.912659,110.447243 477.597260,113.092178 482.006927,113.017715 
	C486.429718,112.943016 488.950073,110.783043 488.982361,106.604431 
	C489.041351,98.968727 488.999115,91.332245 488.999115,83.011696 
	C492.038422,83.011696 494.826996,82.786095 497.540894,83.137436 
	C498.456604,83.255981 499.182922,84.837471 499.997925,86.229820 
z" data-index="9"></path>
<path fill="#0076BF" opacity="1.000000" stroke="none" d="
M347.000244,73.122009 
	C347.000275,70.998512 347.000275,69.358658 347.000275,67.361137 
	C351.017792,67.361137 354.721130,67.361137 358.721802,67.361137 
	C358.721802,85.116661 358.721802,102.794197 358.721802,120.735428 
	C354.935425,120.735428 351.344818,120.735428 347.000244,120.735428 
	C347.000244,105.027222 347.000244,89.316437 347.000244,73.122009 
z" data-index="10" style="opacity: 1;"></path>
<path fill="#ED1B23" opacity="1.000000" stroke="none" d="
M240.045074,153.874329 
	C241.382767,156.439407 242.439682,159.208221 244.120377,161.524384 
	C247.031326,165.535965 247.623749,169.338287 244.792023,173.643982 
	C243.187073,176.084320 242.039246,178.825272 240.430344,181.922073 
	C237.863907,175.004288 235.704269,168.433228 233.015869,162.086105 
	C226.596497,146.930496 219.921280,131.883347 213.363174,116.786392 
	C210.901123,111.118652 208.477249,105.434341 206.404083,99.536285 
	C208.180023,101.595734 209.587860,103.876480 211.007263,106.496094 
	C211.712219,107.886375 212.405640,108.937790 213.058441,109.988289 
	C213.017822,109.987373 213.020325,109.906143 213.089386,110.247467 
	C214.137527,112.054535 215.116608,113.520271 216.057800,114.984772 
	C216.019897,114.983528 216.023178,114.907768 216.081116,115.235764 
	C216.790878,116.370056 217.442734,117.176346 218.056702,117.982346 
	C218.018814,117.982056 218.020203,117.906273 218.089172,118.247620 
	C219.137314,120.054680 220.116516,121.520386 221.057770,122.984840 
	C221.019821,122.983597 221.023102,122.907745 221.081268,123.235687 
	C221.791138,124.370003 222.442856,125.176361 223.059464,125.980118 
	C223.024353,125.977509 223.032654,125.907585 223.030914,126.294670 
	C223.667007,127.163345 224.304871,127.644936 224.950195,128.080765 
	C224.957672,128.035004 224.865891,128.021698 224.627914,128.332153 
	C224.959335,129.426453 225.528748,130.210297 226.059891,130.989044 
	C226.021637,130.983963 226.032623,130.907562 226.030945,131.294617 
	C226.667068,132.163315 227.304886,132.644943 227.950195,133.080795 
	C227.957672,133.035004 227.865814,133.021713 227.627899,133.332184 
	C227.959381,134.426483 228.528778,135.210297 229.061676,135.988861 
	C229.025177,135.983597 229.036575,135.910736 229.028870,136.255798 
	C229.712326,137.394196 230.403503,138.187561 231.059723,138.978989 
	C231.024750,138.977066 231.032791,138.907486 231.031158,139.294601 
	C231.667282,140.163330 232.305008,140.644943 232.950226,141.080780 
	C232.957703,141.034988 232.865845,141.021683 232.627686,141.332047 
	C232.959091,142.426300 233.528641,143.210175 234.059967,143.988953 
	C234.021744,143.983871 234.032730,143.907532 234.030945,144.294678 
	C234.667023,145.163391 235.304871,145.644943 235.950195,146.080750 
	C235.957687,146.034973 235.865891,146.021667 235.627686,146.332016 
	C235.959061,147.426254 236.528641,148.210144 237.059982,148.988953 
	C237.021759,148.983856 237.032745,148.907532 237.030975,149.294632 
	C237.667038,150.163345 238.304886,150.644943 238.950195,151.080780 
	C238.957672,151.034988 238.865845,151.021683 238.627731,151.332062 
	C238.959122,152.426346 239.528625,153.210236 240.055588,153.977142 
	C240.013062,153.960144 240.045090,153.874329 240.045074,153.874329 
z" data-index="11" style="opacity: 1;"></path>
<path fill="#704B75" opacity="1.000000" stroke="none" d="
M135.167435,136.998337 
	C135.129578,136.552826 135.091705,136.107330 135.511749,135.330719 
	C137.739883,135.303665 139.731400,135.184174 141.246841,135.975906 
	C160.923782,146.256073 180.494476,156.739868 200.185974,166.991730 
	C205.289825,169.648941 210.718628,171.682068 216.110519,174.323135 
	C219.750336,176.730911 223.380539,178.665955 226.765762,180.962128 
	C228.714310,182.283829 230.266403,184.190018 231.996964,185.833099 
	C230.961288,185.892441 229.925598,185.951782 228.148834,186.013092 
	C226.938797,186.008194 226.469849,186.001343 225.916519,185.658997 
	C224.780502,184.330582 223.881088,183.056549 222.652115,182.391159 
	C215.639557,178.594391 208.546051,174.947205 201.484543,171.240662 
	C181.041779,160.510452 160.606384,149.766205 140.149475,139.063065 
	C138.562988,138.233002 136.831528,137.680069 135.167435,136.998337 
z" data-index="12" style="opacity: 1;"></path>
<path fill="#0076BE" opacity="1.000000" stroke="none" d="
M210.995712,106.157211 
	C209.587860,103.876480 208.180023,101.595734 206.470398,99.157486 
	C206.599640,95.378357 208.121780,97.493530 209.007843,98.591560 
	C214.356461,105.219765 219.596939,111.935127 224.892487,118.606331 
	C231.098755,126.424812 237.389206,134.177826 243.493469,142.074936 
	C244.922043,143.923096 247.088547,146.738297 246.534973,148.217926 
	C245.720917,150.393753 242.767349,151.769135 240.385162,153.679932 
	C240.045090,153.874329 240.013062,153.960144 240.297333,153.667404 
	C240.009689,152.590332 239.437759,151.806015 238.865845,151.021683 
	C238.865845,151.021683 238.957672,151.034988 238.958862,150.692993 
	C238.317612,149.869843 237.675171,149.388687 237.032745,148.907532 
	C237.032745,148.907532 237.021759,148.983856 237.301895,148.679291 
	C237.009995,147.590378 236.437943,146.806030 235.865891,146.021667 
	C235.865891,146.021667 235.957687,146.034973 235.959000,145.692963 
	C235.317780,144.869812 234.675262,144.388672 234.032730,143.907532 
	C234.032730,143.907532 234.021744,143.983871 234.301849,143.679306 
	C234.009903,142.590393 233.437881,141.806030 232.865845,141.021683 
	C232.865845,141.021683 232.957703,141.034988 232.958862,140.693100 
	C232.317596,139.869965 231.675186,139.388733 231.032791,138.907501 
	C231.032791,138.907486 231.024750,138.977066 231.249542,138.618164 
	C230.661758,137.476425 229.849167,136.693573 229.036575,135.910736 
	C229.036575,135.910736 229.025177,135.983597 229.303619,135.679230 
	C229.009979,134.590485 228.437897,133.806091 227.865814,133.021713 
	C227.865814,133.021713 227.957672,133.035004 227.958740,132.693008 
	C227.317413,131.869858 226.675018,131.388702 226.032623,130.907562 
	C226.032623,130.907562 226.021637,130.983963 226.301880,130.679459 
	C226.010040,129.590530 225.437973,128.806122 224.865891,128.021698 
	C224.865891,128.021698 224.957672,128.035004 224.958923,127.693039 
	C224.317657,126.869904 223.675156,126.388741 223.032654,125.907585 
	C223.032654,125.907585 223.024353,125.977509 223.247070,125.616791 
	C222.654221,124.473289 221.838654,123.690514 221.023102,122.907745 
	C221.023102,122.907745 221.019821,122.983597 221.262268,122.634277 
	C220.343216,120.825394 219.181702,119.365829 218.020203,117.906273 
	C218.020203,117.906273 218.018814,117.982056 218.244476,117.619072 
	C217.654480,116.473312 216.838837,115.690536 216.023178,114.907761 
	C216.023178,114.907768 216.019897,114.983528 216.262177,114.634140 
	C215.343079,112.825211 214.181702,111.365677 213.020325,109.906143 
	C213.020325,109.906143 213.017822,109.987373 213.309143,109.697510 
	C212.732224,108.324173 211.863968,107.240692 210.995712,106.157211 
z" data-index="13" style="opacity: 1;"></path>
<path fill="#913E5F" opacity="1.000000" stroke="none" d="
M135.165436,161.002228 
	C135.125595,159.286697 135.085754,157.571182 135.436157,155.517120 
	C142.124100,158.572144 148.406174,161.995026 154.722855,165.352798 
	C166.039642,171.368454 177.320053,177.456985 188.732712,183.285904 
	C193.711456,185.828735 198.979095,187.805984 204.115540,190.040100 
	C201.037277,190.703217 197.959030,191.366318 194.272751,191.780029 
	C192.745132,190.840027 191.897110,190.015671 190.894928,189.479416 
	C180.220276,183.767609 169.578644,177.989578 158.809540,172.460358 
	C151.020477,168.461182 143.053238,164.809097 135.165436,161.002228 
z" data-index="14" style="opacity: 1;"></path>
<path fill="#ED1B23" opacity="1.000000" stroke="none" d="
M150.978210,90.555336 
	C152.295441,88.980301 153.591232,87.794006 155.024384,86.305779 
	C158.195038,86.204308 161.228378,86.404770 164.902344,86.833420 
	C166.028885,87.318802 166.514755,87.575989 167.000626,87.833176 
	C173.162933,89.666847 177.564270,93.498703 180.094910,99.710907 
	C180.055084,100.013763 180.040619,99.950455 179.643433,99.972054 
	C175.310547,101.719864 172.294006,100.675507 169.669037,97.292313 
	C168.573425,95.880241 166.691116,95.078583 165.006104,93.689995 
	C163.563965,92.975937 162.282196,92.571259 160.613708,92.100311 
	C158.820587,93.683830 156.461273,95.196259 156.199692,97.011047 
	C155.594635,101.208755 156.005447,105.552879 155.933899,109.867218 
	C155.863510,109.896812 155.842865,110.048111 155.542343,110.214691 
	C154.163406,110.976036 153.084976,111.570801 151.674530,112.095093 
	C150.895203,111.960571 150.447891,111.896538 150.000580,111.832504 
	C148.313248,104.777863 148.138000,97.792442 150.978210,90.555336 
z" data-index="15" style="opacity: 1; visibility: visible;"></path>
<path fill="#754972" opacity="1.000000" stroke="none" d="
M135.107178,137.395935 
	C136.831528,137.680069 138.562988,138.233002 140.149475,139.063065 
	C160.606384,149.766205 181.041779,160.510452 201.484543,171.240662 
	C208.546051,174.947205 215.639557,178.594391 222.652115,182.391159 
	C223.881088,183.056549 224.780502,184.330582 225.915588,185.868668 
	C225.999054,186.413818 225.997498,186.832840 225.997498,186.832825 
	C224.928955,186.873627 223.860428,186.914429 222.302185,186.571198 
	C220.877609,185.296371 220.085709,184.134964 218.986938,183.554367 
	C193.125626,169.889404 167.244339,156.261948 141.315125,142.726395 
	C139.468781,141.762558 137.226196,141.557739 135.167862,141.000000 
	C135.127548,139.931183 135.087234,138.862366 135.107178,137.395935 
z" data-index="16" style="opacity: 1;"></path>
<path fill="#854367" opacity="1.000000" stroke="none" d="
M135.166000,152.997635 
	C135.211655,151.796844 135.257294,150.596069 135.959656,149.252594 
	C145.762665,153.416138 155.052628,157.445251 164.020950,162.094788 
	C176.860138,168.751099 189.517639,175.765762 202.128632,182.848343 
	C205.025894,184.475494 207.418533,187.001160 210.043396,189.113327 
	C208.616974,189.394211 207.190536,189.675095 205.343445,189.552643 
	C199.771667,185.807953 194.821503,182.091293 189.427750,179.203079 
	C178.068954,173.120773 166.539047,167.346893 154.957642,161.695892 
	C148.486404,158.538315 141.771240,155.880600 135.166000,152.997635 
z" data-index="17" style="opacity: 1;"></path>
<path fill="#8B4063" opacity="1.000000" stroke="none" d="
M135.109680,153.330688 
	C141.771240,155.880600 148.486404,158.538315 154.957642,161.695892 
	C166.539047,167.346893 178.068954,173.120773 189.427750,179.203079 
	C194.821503,182.091293 199.771667,185.807953 204.961395,189.491608 
	C204.999985,189.833939 204.564987,189.967987 204.340271,190.004059 
	C198.979095,187.805984 193.711456,185.828735 188.732712,183.285904 
	C177.320053,177.456985 166.039642,171.368454 154.722855,165.352798 
	C148.406174,161.995026 142.124100,158.572144 135.496887,155.091858 
	C135.129364,154.557999 135.091354,154.110886 135.109680,153.330688 
z" data-index="18" style="opacity: 1;"></path>
<path fill="#386099" opacity="1.000000" stroke="none" d="
M220.836304,139.000259 
	C221.208405,140.096161 221.580521,141.192047 221.516418,142.636200 
	C218.083221,141.671677 215.004028,140.518112 212.102951,139.019699 
	C196.035187,130.720596 179.972183,122.409691 164.026596,113.880272 
	C162.285614,112.949013 161.306351,110.593758 160.160202,108.622696 
	C161.215820,108.193115 162.085022,108.039833 163.066803,108.216148 
	C164.310089,109.458130 165.328690,110.581863 166.588791,111.250320 
	C179.739700,118.226517 192.901352,125.183762 206.123001,132.024551 
	C210.940796,134.517242 215.926956,136.684509 220.836304,139.000259 
z" data-index="19" style="opacity: 1;"></path>
<path fill="#545587" opacity="1.000000" stroke="none" d="
M135.168137,117.996284 
	C134.406372,114.234413 137.211761,115.168686 139.644073,115.267303 
	C144.059433,118.196342 147.789780,121.196457 151.944550,123.394165 
	C174.979980,135.578888 198.105682,147.593445 221.236938,159.595932 
	C224.425354,161.250351 227.816650,162.513748 231.114029,163.958160 
	C231.418533,164.739426 231.723053,165.520676 231.707062,166.574005 
	C230.125320,166.430069 228.776657,166.181091 227.615753,165.573425 
	C205.259857,153.871368 182.960617,142.060577 160.569580,130.426376 
	C152.207199,126.081352 143.641266,122.128143 135.168137,117.996284 
z" data-index="20" style="opacity: 1;"></path>
<path fill="#A23753" opacity="1.000000" stroke="none" d="
M135.160202,172.997009 
	C135.120239,171.281845 135.080261,169.566681 135.456360,167.455460 
	C147.518936,173.110504 159.225647,179.049713 170.783615,185.265503 
	C175.697021,187.907883 180.298874,191.129547 185.042297,194.087952 
	C182.619141,194.695023 180.195984,195.302094 177.297012,195.545166 
	C175.687241,194.030136 174.746811,192.523422 173.388641,191.784546 
	C162.747482,185.995514 152.056915,180.294449 141.300339,174.723160 
	C139.451569,173.765594 137.216705,173.553482 135.160202,172.997009 
z" data-index="21" style="opacity: 1;"></path>
<path fill="#5C5282" opacity="1.000000" stroke="none" d="
M135.166916,122.998474 
	C135.124588,122.246529 135.082245,121.494583 135.458481,120.400162 
	C143.679047,124.085480 151.512115,128.054413 159.276505,132.153442 
	C174.977524,140.442429 190.605957,148.869400 206.333908,157.106644 
	C215.430237,161.870697 224.662140,166.375870 233.833038,170.997559 
	C233.833038,170.997559 233.972977,171.443207 233.747925,171.875656 
	C229.804123,170.784485 225.936996,169.544815 222.390381,167.691711 
	C197.080429,154.467331 171.855392,141.080429 146.548599,127.849930 
	C142.905106,125.945091 138.968094,124.601700 135.166916,122.998474 
z" data-index="22" style="opacity: 1;"></path>
<path fill="#585484" opacity="1.000000" stroke="none" d="
M233.878769,170.667938 
	C224.662140,166.375870 215.430237,161.870697 206.333908,157.106644 
	C190.605957,148.869400 174.977524,140.442429 159.276505,132.153442 
	C151.512115,128.054413 143.679047,124.085480 135.522339,120.027664 
	C135.130814,119.551888 135.093964,119.106155 135.112625,118.328354 
	C143.641266,122.128143 152.207199,126.081352 160.569580,130.426376 
	C182.960617,142.060577 205.259857,153.871368 227.615753,165.573425 
	C228.776657,166.181091 230.125320,166.430069 231.755890,166.906525 
	C232.724976,168.090759 233.324738,169.214539 233.878769,170.667938 
z" data-index="23" style="opacity: 1;"></path>
<path fill="#81446A" opacity="1.000000" stroke="none" d="
M210.424164,189.072052 
	C207.418533,187.001160 205.025894,184.475494 202.128632,182.848343 
	C189.517639,175.765762 176.860138,168.751099 164.020950,162.094788 
	C155.052628,157.445251 145.762665,153.416138 136.250702,149.034485 
	C135.605621,147.239197 135.326187,145.519318 135.335632,143.540222 
	C136.083206,143.520462 136.541916,143.759918 137.181641,144.286102 
	C138.791611,145.656494 140.115112,146.931335 141.669098,147.788177 
	C146.427017,150.411591 151.247650,152.925186 156.090820,155.389252 
	C166.378555,160.623306 176.695953,165.799103 187.333893,170.999557 
	C188.110168,171.001389 188.553772,171.002457 189.082031,171.338989 
	C190.937943,173.029846 192.609207,174.547516 194.498413,175.711456 
	C201.309296,179.907608 208.193619,183.984573 215.050201,188.106552 
	C213.635101,188.414627 212.220016,188.722687 210.424164,189.072052 
z" data-index="24" style="opacity: 1;"></path>
<path fill="#79476F" opacity="1.000000" stroke="none" d="
M137.000610,143.999390 
	C136.541916,143.759918 136.083206,143.520462 135.396439,143.158722 
	C135.131332,142.582932 135.094299,142.129395 135.112564,141.337921 
	C137.226196,141.557739 139.468781,141.762558 141.315125,142.726395 
	C167.244339,156.261948 193.125626,169.889404 218.986938,183.554367 
	C220.085709,184.134964 220.877609,185.296371 221.904800,186.510498 
	C221.215454,187.197617 220.433777,187.561447 219.201935,187.573166 
	C208.833618,181.815201 198.915497,176.409363 188.997360,171.003510 
	C188.553772,171.002457 188.110168,171.001389 187.223373,170.680237 
	C185.789124,169.523331 184.908356,168.480576 183.789917,167.881714 
	C172.989731,162.098770 162.185760,156.320496 151.303970,150.693497 
	C146.631668,148.277466 141.774033,146.219849 137.000610,143.999390 
z" data-index="25"></path>
<path fill="#5F5180" opacity="1.000000" stroke="none" d="
M135.106491,123.327019 
	C138.968094,124.601700 142.905106,125.945091 146.548599,127.849930 
	C171.855392,141.080429 197.080429,154.467331 222.390381,167.691711 
	C225.936996,169.544815 229.804123,170.784485 233.790466,172.105301 
	C234.374954,172.678329 234.691895,173.454178 234.776535,174.742737 
	C233.300659,174.972260 231.930481,174.934555 230.832672,174.368576 
	C216.827332,167.148056 202.893982,159.787582 188.874847,152.594223 
	C176.627380,146.309891 164.294525,140.192017 151.695786,133.852798 
	C149.928345,133.136353 148.464523,132.567719 146.889160,131.676056 
	C143.675629,127.916985 139.987091,125.830490 135.181885,126.313225 
	C135.136612,125.427338 135.091339,124.541451 135.106491,123.327019 
z" data-index="26" style="opacity: 1;"></path>
<path fill="#515789" opacity="1.000000" stroke="none" d="
M231.054642,163.607178 
	C227.816650,162.513748 224.425354,161.250351 221.236938,159.595932 
	C198.105682,147.593445 174.979980,135.578888 151.944550,123.394165 
	C147.789780,121.196457 144.059433,118.196342 140.047791,115.223022 
	C141.065186,114.572617 142.167938,114.265869 143.664642,114.267731 
	C145.104950,115.749046 145.929184,117.337120 147.230530,118.033150 
	C173.291275,131.971954 199.397171,145.826660 225.557404,159.577637 
	C226.372757,160.006210 227.864944,159.147125 229.041595,158.888336 
	C229.692810,160.344284 230.344040,161.800232 231.054642,163.607178 
z" data-index="27" style="opacity: 1;"></path>
<path fill="#425C93" opacity="1.000000" stroke="none" d="
M152.006561,112.165565 
	C153.084976,111.570801 154.163406,110.976036 155.611328,110.570068 
	C157.565598,112.294891 158.906738,114.279556 160.774765,115.293907 
	C172.612061,121.721649 184.523331,128.017303 196.495163,134.191833 
	C205.637192,138.906876 214.904572,143.378891 224.116180,147.959015 
	C224.674225,148.461639 225.232254,148.964264 225.498215,149.893127 
	C223.186432,149.903946 220.945999,149.916809 219.181030,149.007156 
	C200.617004,139.439529 182.084381,129.808151 163.654312,119.985634 
	C159.548676,117.797478 155.877670,114.793777 152.006561,112.165565 
z" data-index="28" style="opacity: 1;"></path>
<path fill="#33629D" opacity="1.000000" stroke="none" d="
M220.778900,138.663330 
	C215.926956,136.684509 210.940796,134.517242 206.123001,132.024551 
	C192.901352,125.183762 179.739700,118.226517 166.588791,111.250320 
	C165.328690,110.581863 164.310089,109.458130 163.077545,108.019669 
	C162.975708,107.493599 162.945419,107.101257 163.295792,107.065262 
	C164.115036,106.992668 164.583908,106.956062 165.357300,106.839806 
	C166.425735,106.464622 167.189651,106.169090 168.039459,106.217834 
	C169.150330,107.571945 170.008072,108.896645 171.225861,109.543411 
	C185.095718,116.909798 199.004837,124.203064 212.952530,131.421036 
	C214.519348,132.231873 216.387558,132.460266 218.116013,132.958755 
	C218.984512,134.747971 219.852997,136.537170 220.778900,138.663330 
z" data-index="29" style="opacity: 1;"></path>
<path fill="#AF324B" opacity="1.000000" stroke="none" d="
M135.167984,182.006668 
	C135.125778,179.962479 135.083557,177.918304 135.431976,175.525818 
	C145.072784,180.047577 154.402161,184.775452 163.531998,189.861557 
	C166.923050,191.750671 169.846436,194.479263 172.983093,196.825027 
	C170.881683,197.451233 168.780289,198.077438 166.129425,198.496231 
	C158.182022,193.923431 150.842010,189.454880 143.353912,185.250061 
	C140.817856,183.825958 137.907364,183.068665 135.167984,182.006668 
z" data-index="30" style="opacity: 1;"></path>
<path fill="#3E5E95" opacity="1.000000" stroke="none" d="
M224.071899,147.587097 
	C214.904572,143.378891 205.637192,138.906876 196.495163,134.191833 
	C184.523331,128.017303 172.612061,121.721649 160.774765,115.293907 
	C158.906738,114.279556 157.565598,112.294891 155.911865,110.403488 
	C155.842865,110.048111 155.863510,109.896812 156.281174,109.911789 
	C157.790482,109.584175 158.882141,109.241585 159.973785,108.898994 
	C161.306351,110.593758 162.285614,112.949013 164.026596,113.880272 
	C179.972183,122.409691 196.035187,130.720596 212.102951,139.019699 
	C215.004028,140.518112 218.083221,141.671677 221.456970,142.992447 
	C222.565048,144.405365 223.296326,145.810257 224.071899,147.587097 
z" data-index="31" style="opacity: 1;"></path>
<path fill="#475B90" opacity="1.000000" stroke="none" d="
M151.674530,112.095093 
	C155.877670,114.793777 159.548676,117.797478 163.654312,119.985634 
	C182.084381,129.808151 200.617004,139.439529 219.181030,149.007156 
	C220.945999,149.916809 223.186432,149.903946 225.513275,150.179230 
	C226.188858,151.128235 226.557281,152.217392 226.489731,153.652130 
	C224.295639,153.602936 222.352066,153.563904 220.807861,152.758835 
	C203.588104,143.781586 186.373077,134.791611 169.282150,125.572632 
	C162.002060,121.645691 155.016220,117.173256 147.896652,112.948708 
	C148.394196,112.627220 148.891739,112.305733 149.694931,111.908379 
	C150.447891,111.896538 150.895203,111.960571 151.674530,112.095093 
z" data-index="32" style="opacity: 1;"></path>
<path fill="#62507E" opacity="1.000000" stroke="none" d="
M151.999390,134.000610 
	C164.294525,140.192017 176.627380,146.309891 188.874847,152.594223 
	C202.893982,159.787582 216.827332,167.148056 230.832672,174.368576 
	C231.930481,174.934555 233.300659,174.972260 234.800629,175.078674 
	C235.679214,176.045395 236.301392,177.188934 236.515686,178.639267 
	C231.204849,176.607742 226.314743,174.242004 221.395889,171.937637 
	C214.274857,168.601593 207.133011,165.309967 199.712891,161.860046 
	C198.284225,161.146835 197.142715,160.572998 195.889145,159.677872 
	C194.483383,158.387131 193.291962,157.223465 191.879440,156.479691 
	C182.664490,151.627686 173.324219,147.008286 164.188705,142.013290 
	C159.936462,139.688309 156.051071,136.692398 151.999390,134.000610 
z" data-index="33" style="opacity: 1;"></path>
<path fill="#4D588B" opacity="1.000000" stroke="none" d="
M229.012329,158.590515 
	C227.864944,159.147125 226.372757,160.006210 225.557404,159.577637 
	C199.397171,145.826660 173.291275,131.971954 147.230530,118.033150 
	C145.929184,117.337120 145.104950,115.749046 144.024536,114.210350 
	C144.357147,113.602417 144.723770,113.360466 145.591934,113.516006 
	C147.415421,115.116074 148.557114,116.657745 150.086243,117.470520 
	C174.225372,130.301147 198.400620,143.064209 222.623093,155.736618 
	C224.202835,156.563080 226.232513,156.529510 228.052887,156.895996 
	C228.362946,157.361572 228.673004,157.827133 229.012329,158.590515 
z" data-index="34" style="opacity: 1;"></path>
<path fill="#4A598D" opacity="1.000000" stroke="none" d="
M228.018219,156.575623 
	C226.232513,156.529510 224.202835,156.563080 222.623093,155.736618 
	C198.400620,143.064209 174.225372,130.301147 150.086243,117.470520 
	C148.557114,116.657745 147.415421,115.116074 145.938934,113.545776 
	C146.311340,113.115486 146.838318,113.052910 147.630966,112.969528 
	C155.016220,117.173256 162.002060,121.645691 169.282150,125.572632 
	C186.373077,134.791611 203.588104,143.781586 220.807861,152.758835 
	C222.352066,153.563904 224.295639,153.602936 226.445099,154.000244 
	C227.218826,154.753601 227.601196,155.504425 228.018219,156.575623 
z" data-index="35" style="opacity: 1;"></path>
<path fill="#2D64A0" opacity="1.000000" stroke="none" d="
M218.056366,132.610748 
	C216.387558,132.460266 214.519348,132.231873 212.952530,131.421036 
	C199.004837,124.203064 185.095718,116.909798 171.225861,109.543411 
	C170.008072,108.896645 169.150330,107.571945 168.217484,105.940994 
	C169.169769,105.198959 170.029922,105.078049 171.188156,105.136421 
	C184.786484,112.597801 198.068314,119.914200 211.427536,127.086456 
	C212.339249,127.575935 213.831314,126.984459 215.053467,126.895706 
	C216.034561,128.684723 217.015640,130.473724 218.056366,132.610748 
z" data-index="36" style="opacity: 1;"></path>
<path fill="#B92E45" opacity="1.000000" stroke="none" d="
M135.104950,182.431900 
	C137.907364,183.068665 140.817856,183.825958 143.353912,185.250061 
	C150.842010,189.454880 158.182022,193.923431 165.764404,198.557434 
	C163.929199,199.217987 161.909576,199.609909 159.144791,199.947357 
	C150.654968,195.931015 142.910309,191.969131 135.165649,188.007248 
	C135.124405,186.290543 135.083160,184.573837 135.104950,182.431900 
z" data-index="37" style="opacity: 1;"></path>
<path fill="#9C3958" opacity="1.000000" stroke="none" d="
M185.428665,194.055176 
	C180.298874,191.129547 175.697021,187.907883 170.783615,185.265503 
	C159.225647,179.049713 147.518936,173.110504 135.517181,167.030304 
	C135.123093,166.249893 135.084213,165.498535 135.468689,164.402542 
	C142.255783,167.202393 148.722549,170.156448 154.961014,173.532394 
	C166.741821,179.907547 178.391281,186.525406 190.095337,193.042404 
	C188.668564,193.369064 187.241806,193.695740 185.428665,194.055176 
z" data-index="38" style="opacity: 1;"></path>
<path fill="#983B5A" opacity="1.000000" stroke="none" d="
M190.453308,193.026184 
	C178.391281,186.525406 166.741821,179.907547 154.961014,173.532394 
	C148.722549,170.156448 142.255783,167.202393 135.529129,164.029938 
	C135.125626,163.250519 135.085068,162.499054 135.104980,161.374908 
	C143.053238,164.809097 151.020477,168.461182 158.809540,172.460358 
	C169.578644,177.989578 180.220276,183.767609 190.894928,189.479416 
	C191.897110,190.015671 192.745132,190.840027 193.857819,191.819305 
	C192.971024,192.408630 191.891144,192.709290 190.453308,193.026184 
z" data-index="39" style="opacity: 1;"></path>
<path fill="#1E6AAA" opacity="1.000000" stroke="none" d="
M209.090134,112.955879 
	C210.067291,115.048828 211.044434,117.141785 211.698166,119.582687 
	C202.704987,115.589882 194.061844,111.194679 185.351120,106.937737 
	C182.280945,105.437332 179.045425,104.275223 176.055389,102.668037 
	C177.497101,101.568428 178.768860,100.759438 180.040619,99.950455 
	C180.040619,99.950455 180.055084,100.013763 180.023346,100.019516 
	C180.718109,100.012260 181.444580,99.999237 182.834351,100.146492 
	C192.028473,104.523140 200.559311,108.739510 209.090134,112.955879 
z" data-index="40" style="opacity: 1;"></path>
<path fill="#A9354F" opacity="1.000000" stroke="none" d="
M173.334946,196.873840 
	C169.846436,194.479263 166.923050,191.750671 163.531998,189.861557 
	C154.402161,184.775452 145.072784,180.047577 135.493347,175.091400 
	C135.124039,174.558014 135.084000,174.110718 135.102081,173.330215 
	C137.216705,173.553482 139.451569,173.765594 141.300339,174.723160 
	C152.056915,180.294449 162.747482,185.995514 173.388641,191.784546 
	C174.746811,192.523422 175.687241,194.030136 176.907349,195.506378 
	C175.891266,196.195297 174.789032,196.558990 173.334946,196.873840 
z" data-index="41" style="opacity: 1;"></path>
<path fill="#156DB0" opacity="1.000000" stroke="none" d="
M209.036438,112.590240 
	C200.559311,108.739510 192.028473,104.523140 183.197479,100.128334 
	C185.203094,98.672394 187.508881,97.394882 190.382599,96.486816 
	C194.788040,101.001640 199.197662,104.004852 205.133804,103.960403 
	C206.416779,106.715134 207.699768,109.469864 209.036438,112.590240 
z" data-index="42" style="opacity: 1;"></path>
<path fill="#2866A3" opacity="1.000000" stroke="none" d="
M215.020294,126.574028 
	C213.831314,126.984459 212.339249,127.575935 211.427536,127.086456 
	C198.068314,119.914200 184.786484,112.597801 171.366989,104.846237 
	C172.499390,103.973396 173.751007,103.570015 175.122894,103.472412 
	C176.629608,104.911781 177.880859,106.293198 179.425903,107.136002 
	C186.075378,110.763161 192.749069,114.357559 199.536835,117.715508 
	C204.197815,120.021324 209.060898,121.918663 213.833633,123.998589 
	C214.218124,124.749847 214.602615,125.501099 215.020294,126.574028 
z" data-index="43" style="opacity: 1;"></path>
<path fill="#2468A6" opacity="1.000000" stroke="none" d="
M213.884674,123.667557 
	C209.060898,121.918663 204.197815,120.021324 199.536835,117.715508 
	C192.749069,114.357559 186.075378,110.763161 179.425903,107.136002 
	C177.880859,106.293198 176.629608,104.911781 175.339722,103.403931 
	C175.436264,103.029655 175.885406,102.958656 175.885406,102.958656 
	C179.045425,104.275223 182.280945,105.437332 185.351120,106.937737 
	C194.061844,111.194679 202.704987,115.589882 211.748886,119.948021 
	C212.727264,121.089104 213.331497,122.212807 213.884674,123.667557 
z" data-index="44" style="opacity: 1;"></path>
<path fill="#C22B3F" opacity="1.000000" stroke="none" d="
M135.102524,188.440948 
	C142.910309,191.969131 150.654968,195.931015 158.754440,199.967834 
	C156.707108,200.697937 154.304962,201.353088 151.508362,202.023865 
	C148.011948,200.319931 144.970215,198.476471 141.784882,196.928497 
	C139.954971,196.039215 137.892258,195.628983 135.547119,195.000946 
	C135.119736,192.957428 135.079559,190.916046 135.102524,188.440948 
z" data-index="45" style="opacity: 1;"></path>
<path fill="#0076BE" opacity="1.000000" stroke="none" d="
M167.246536,87.512436 
	C166.514755,87.575989 166.028885,87.318802 165.271057,86.947464 
	C165.589737,82.580734 169.407364,81.182404 172.004990,82.334145 
	C177.394608,84.723831 182.207993,88.447098 187.129501,91.810570 
	C187.674698,92.183182 187.383957,93.778992 187.480911,94.807510 
	C186.230148,94.613441 184.481461,94.879028 183.809250,94.150871 
	C179.370758,89.342857 174.567764,85.696815 167.246536,87.512436 
z" data-index="46" style="opacity: 1;"></path>
<path fill="#654F7B" opacity="1.000000" stroke="none" d="
M200.000046,161.999390 
	C207.133011,165.309967 214.274857,168.601593 221.395889,171.937637 
	C226.314743,174.242004 231.204849,176.607742 236.470856,178.975708 
	C237.223129,179.776169 237.612335,180.546967 237.671967,181.648880 
	C236.561401,181.986847 235.780396,181.993729 234.674438,181.981201 
	C233.566589,181.640793 232.783691,181.319809 231.888641,180.677628 
	C227.850784,178.237854 223.925095,176.119308 219.666412,174.000244 
	C218.889496,173.999008 218.445526,173.998276 217.884613,173.692719 
	C216.845291,172.925064 215.922958,172.462219 214.787140,171.810959 
	C214.049438,171.414612 213.525192,171.206696 212.891449,170.681229 
	C210.854324,169.242859 208.926712,168.122040 206.666199,167.000687 
	C205.889404,166.999359 205.445511,166.998550 204.906952,166.711395 
	C204.207962,165.950241 203.603683,165.475418 202.748322,164.877747 
	C201.997971,164.503464 201.498688,164.252029 200.876709,163.749344 
	C200.502716,162.998520 200.251373,162.498947 200.000046,161.999390 
z" data-index="47"></path>
<path fill="#0B71B6" opacity="1.000000" stroke="none" d="
M205.083115,103.590164 
	C199.197662,104.004852 194.788040,101.001640 190.761230,96.498474 
	C197.405869,91.602005 202.344620,94.019798 205.083115,103.590164 
z" data-index="48"></path>
<path fill="#7D466C" opacity="1.000000" stroke="none" d="
M189.082031,171.338989 
	C198.915497,176.409363 208.833618,181.815201 218.874023,187.527130 
	C217.943665,187.898178 216.891052,187.963150 215.444305,188.067337 
	C208.193619,183.984573 201.309296,179.907608 194.498413,175.711456 
	C192.609207,174.547516 190.937943,173.029846 189.082031,171.338989 
z" data-index="49"></path>
<path fill="#6B4C77" opacity="1.000000" stroke="none" d="
M218.001572,173.997559 
	C218.445526,173.998276 218.889496,173.999008 219.778503,174.321533 
	C224.149292,176.761810 228.075043,178.880325 232.000793,180.998840 
	C232.783691,181.319809 233.566589,181.640793 234.674500,182.335297 
	C234.999649,183.417007 234.999771,184.125229 234.999908,184.833435 
	C234.217651,185.196991 233.435379,185.560532 232.325043,185.878601 
	C230.266403,184.190018 228.714310,182.283829 226.765762,180.962128 
	C223.380539,178.665955 219.750336,176.730911 216.111435,174.322220 
	C216.000000,174.000000 216.000610,173.999390 216.334091,173.999268 
	C217.112244,173.998627 217.556900,173.998093 218.001572,173.997559 
z" data-index="50"></path>
<path fill="#684E79" opacity="1.000000" stroke="none" d="
M235.347626,184.890457 
	C234.999771,184.125229 234.999649,183.417007 234.999451,182.354706 
	C235.780396,181.993729 236.561401,181.986847 237.732910,181.972702 
	C239.817093,184.997482 237.392044,184.675964 235.347626,184.890457 
z" data-index="51"></path>
<path fill="#79476F" opacity="1.000000" stroke="none" d="
M226.307404,186.883514 
	C225.997498,186.832840 225.999054,186.413818 225.999985,186.204163 
	C226.469849,186.001343 226.938797,186.008194 227.759796,186.027817 
	C227.613678,186.338455 227.115509,186.636322 226.307404,186.883514 
z" data-index="52"></path>
<path fill="#6B4C77" opacity="1.000000" stroke="none" d="
M205.001633,166.997757 
	C205.445511,166.998550 205.889404,166.999359 206.775726,167.318207 
	C209.145767,168.757095 211.073364,169.877930 213.000961,170.998779 
	C213.525192,171.206696 214.049438,171.414612 214.909790,172.062134 
	C215.497482,173.000961 215.749039,173.500183 216.000610,173.999390 
	C216.000610,173.999390 216.000000,174.000000 215.999084,174.000916 
	C210.718628,171.682068 205.289825,169.648941 200.185974,166.991730 
	C180.494476,156.739868 160.923782,146.256073 141.246841,135.975906 
	C139.731400,135.184174 137.739883,135.303665 135.568024,134.998917 
	C135.126053,133.930511 135.085678,132.862808 135.411438,131.397675 
	C136.185440,130.999741 136.593338,130.999252 137.346619,131.068634 
	C139.460815,131.759720 141.229630,132.380920 143.107513,133.321564 
	C148.144608,136.427032 153.072632,139.213058 158.323547,142.140137 
	C160.764008,143.187851 162.881592,144.094528 165.104431,145.313858 
	C166.473679,146.416885 167.737640,147.207245 169.334579,147.998047 
	C170.111496,147.999191 170.555435,147.999893 171.104584,148.313339 
	C172.473526,149.416977 173.737289,150.207870 175.351761,151.070770 
	C179.134705,152.762222 182.566925,154.381699 186.111389,156.322510 
	C191.148865,159.096100 196.074127,161.548355 200.999390,164.000610 
	C201.498688,164.252029 201.997971,164.503464 202.842773,165.164291 
	C203.792725,166.048386 204.397186,166.523071 205.001633,166.997757 
z" data-index="53" style="opacity: 1;"></path>
<path fill="#654F7B" opacity="1.000000" stroke="none" d="
M170.999390,148.000610 
	C170.555435,147.999893 170.111496,147.999191 169.229065,147.685577 
	C167.526794,146.582199 166.262970,145.791702 164.999161,145.001205 
	C162.881592,144.094528 160.764008,143.187851 158.211487,141.818924 
	C152.850494,138.571823 147.924469,135.786972 142.998444,133.002121 
	C141.229630,132.380920 139.460815,131.759720 137.282715,130.557098 
	C136.652802,129.317810 136.432159,128.659927 136.211533,128.002060 
	C136.022079,128.087433 135.832626,128.172821 136.042999,128.089081 
	C139.962128,129.279663 143.481415,130.639389 147.000687,131.999100 
	C148.464523,132.567719 149.928345,133.136353 151.695786,133.852798 
	C156.051071,136.692398 159.936462,139.688309 164.188705,142.013290 
	C173.324219,147.008286 182.664490,151.627686 191.879440,156.479691 
	C193.291962,157.223465 194.483383,158.387131 195.537018,159.606216 
	C192.197693,158.570938 189.098434,157.286057 185.999161,156.001175 
	C182.566925,154.381699 179.134705,152.762222 175.246490,150.758133 
	C173.526810,149.582550 172.263092,148.791580 170.999390,148.000610 
z" data-index="54" style="opacity: 1;"></path>
<path fill="#62507E" opacity="1.000000" stroke="none" d="
M146.889160,131.676056 
	C143.481415,130.639389 139.962128,129.279663 135.911499,127.806473 
	C135.286972,127.363373 135.193787,127.033745 135.141235,126.508675 
	C139.987091,125.830490 143.675629,127.916985 146.889160,131.676056 
z" data-index="55" style="opacity: 1;"></path>
<path fill="#684E79" opacity="1.000000" stroke="none" d="
M135.853226,128.061844 
	C136.432159,128.659927 136.652802,129.317810 136.937332,130.487213 
	C136.593338,130.999252 136.185440,130.999741 135.471649,131.000458 
	C135.275482,130.041016 135.385193,129.081314 135.853226,128.061844 
z" data-index="56"></path>
<path fill="#000000" opacity="1.000000" stroke="none" d="
M19.507996,50.523651 
	C20.736208,50.984222 21.767550,51.629028 22.798893,52.273834 
	C22.700712,52.487320 22.602533,52.700806 22.504354,52.914291 
	C21.417685,52.496166 20.331017,52.078037 19.085949,51.373417 
	C19.055410,50.960575 19.183268,50.834232 19.507996,50.523651 
z" data-index="57"></path>
<path fill="#000000" opacity="1.000000" stroke="none" d="
M443.249237,111.855728 
	C439.375122,111.955353 435.925262,111.955353 432.245422,111.955353 
	C432.245422,107.581612 432.245422,103.652863 432.245422,99.031860 
	C435.675995,99.031860 439.240417,98.446053 442.464508,99.240837 
	C444.562531,99.758041 447.028381,101.956947 447.797913,103.983887 
	C449.123535,107.475502 447.336060,110.364601 443.249237,111.855728 
z" data-index="58" style="opacity: 1; visibility: visible; fill: rgb(220, 218, 226);"></path>
<path fill="#000000" opacity="1.000000" stroke="none" d="
M442.360107,79.024902 
	C446.407318,80.512321 448.247772,83.657478 446.672150,86.823616 
	C445.655518,88.866417 442.231049,90.066650 439.644989,90.861237 
	C437.538696,91.508408 435.075134,90.992805 432.385071,90.992805 
	C432.385071,87.125618 432.385071,83.428871 432.385071,79.007355 
	C435.471649,79.007355 438.697937,79.007355 442.360107,79.024902 
z" data-index="59" style="opacity: 1; visibility: visible; fill: rgb(220, 218, 226);"></path>
<path fill="#000000" opacity="1.000000" stroke="none" d="
M218.089172,118.247620 
	C219.181702,119.365829 220.343216,120.825394 221.300217,122.635513 
	C220.116516,121.520386 219.137314,120.054680 218.089172,118.247620 
z" data-index="60"></path>
<path fill="#000000" opacity="1.000000" stroke="none" d="
M213.089386,110.247467 
	C214.181702,111.365677 215.343079,112.825211 216.300064,114.635376 
	C215.116608,113.520271 214.137527,112.054535 213.089386,110.247467 
z" data-index="61"></path>
<path fill="#000000" opacity="1.000000" stroke="none" d="
M211.007263,106.496094 
	C211.863968,107.240692 212.732224,108.324173 213.349762,109.698425 
	C212.405640,108.937790 211.712219,107.886375 211.007263,106.496094 
z" data-index="62"></path>
<path fill="#000000" opacity="1.000000" stroke="none" d="
M229.028870,136.255798 
	C229.849167,136.693573 230.661758,137.476425 231.284515,138.620087 
	C230.403503,138.187561 229.712326,137.394196 229.028870,136.255798 
z" data-index="63"></path>
<path fill="#000000" opacity="1.000000" stroke="none" d="
M216.081116,115.235764 
	C216.838837,115.690536 217.654480,116.473312 218.282349,117.619362 
	C217.442734,117.176346 216.790878,116.370056 216.081116,115.235764 
z" data-index="64"></path>
<path fill="#000000" opacity="1.000000" stroke="none" d="
M221.081268,123.235687 
	C221.838654,123.690514 222.654221,124.473289 223.282166,125.619392 
	C222.442856,125.176361 221.791138,124.370003 221.081268,123.235687 
z" data-index="65"></path>
<path fill="#000000" opacity="1.000000" stroke="none" d="
M223.030914,126.294670 
	C223.675156,126.388741 224.317657,126.869904 224.951447,127.738800 
	C224.304871,127.644936 223.667007,127.163345 223.030914,126.294670 
z" data-index="66"></path>
<path fill="#000000" opacity="1.000000" stroke="none" d="
M237.030975,149.294632 
	C237.675171,149.388687 238.317612,149.869843 238.951385,150.738770 
	C238.304886,150.644943 237.667038,150.163345 237.030975,149.294632 
z" data-index="67"></path>
<path fill="#000000" opacity="1.000000" stroke="none" d="
M226.030945,131.294617 
	C226.675018,131.388702 227.317413,131.869858 227.951248,132.738800 
	C227.304886,132.644943 226.667068,132.163315 226.030945,131.294617 
z" data-index="68"></path>
<path fill="#000000" opacity="1.000000" stroke="none" d="
M234.030945,144.294678 
	C234.675262,144.388672 235.317780,144.869812 235.951508,145.738739 
	C235.304871,145.644943 234.667023,145.163391 234.030945,144.294678 
z" data-index="69"></path>
<path fill="#000000" opacity="1.000000" stroke="none" d="
M231.031158,139.294617 
	C231.675186,139.388733 232.317596,139.869965 232.951370,140.738892 
	C232.305008,140.644943 231.667282,140.163330 231.031158,139.294617 
z" data-index="70"></path>
<path fill="#000000" opacity="1.000000" stroke="none" d="
M224.627914,128.332153 
	C225.437973,128.806122 226.010040,129.590530 226.340134,130.684540 
	C225.528748,130.210297 224.959335,129.426453 224.627914,128.332153 
z" data-index="71"></path>
<path fill="#000000" opacity="1.000000" stroke="none" d="
M238.627731,151.332062 
	C239.437759,151.806015 240.009689,152.590332 240.339859,153.684387 
	C239.528625,153.210236 238.959122,152.426346 238.627731,151.332062 
z" data-index="72"></path>
<path fill="#000000" opacity="1.000000" stroke="none" d="
M235.627686,146.332016 
	C236.437943,146.806030 237.009995,147.590378 237.340118,148.684387 
	C236.528641,148.210144 235.959061,147.426254 235.627686,146.332016 
z" data-index="73"></path>
<path fill="#000000" opacity="1.000000" stroke="none" d="
M227.627899,133.332184 
	C228.437897,133.806091 229.009979,134.590485 229.340103,135.684494 
	C228.528778,135.210297 227.959381,134.426483 227.627899,133.332184 
z" data-index="74"></path>
<path fill="#000000" opacity="1.000000" stroke="none" d="
M232.627686,141.332047 
	C233.437881,141.806030 234.009903,142.590393 234.340057,143.684387 
	C233.528641,143.210175 232.959091,142.426300 232.627686,141.332047 
z" data-index="75"></path>
<path fill="#000000" opacity="1.000000" stroke="none" d="
M160.160202,108.622696 
	C158.882141,109.241585 157.790482,109.584175 156.351562,109.882202 
	C156.005447,105.552879 155.594635,101.208755 156.199692,97.011047 
	C156.461273,95.196259 158.820587,93.683830 160.613831,92.553085 
	C161.000473,95.549240 160.747894,98.060204 161.074051,100.493591 
	C161.375061,102.739410 162.296967,104.902008 162.945419,107.101257 
	C162.945419,107.101257 162.975708,107.493599 162.964966,107.690079 
	C162.085022,108.039833 161.215820,108.193115 160.160202,108.622696 
z" data-index="76" style="opacity: 1; visibility: visible; fill: rgb(255, 255, 255);"></path>
<path fill="#000000" opacity="1.000000" stroke="none" d="
M176.055389,102.668037 
	C175.885406,102.958656 175.436264,103.029655 175.219452,103.098145 
	C173.751007,103.570015 172.499390,103.973396 171.068924,104.666962 
	C170.029922,105.078049 169.169769,105.198959 168.131592,105.596710 
	C167.189651,106.169090 166.425735,106.464622 165.335632,106.384521 
	C165.061798,102.005714 165.114151,98.002541 165.166504,93.999374 
	C166.691116,95.078583 168.573425,95.880241 169.669037,97.292313 
	C172.294006,100.675507 175.310547,101.719864 179.643433,99.972046 
	C178.768860,100.759438 177.497101,101.568428 176.055389,102.668037 
z" data-index="77" style="opacity: 1; visibility: visible; fill: rgb(255, 255, 255);"></path>
<path fill="#0076BE" opacity="1.000000" stroke="none" d="
M165.006104,93.689995 
	C165.114151,98.002541 165.061798,102.005714 165.031113,106.464172 
	C164.583908,106.956062 164.115036,106.992668 163.295792,107.065262 
	C162.296967,104.902008 161.375061,102.739410 161.074051,100.493591 
	C160.747894,98.060204 161.000473,95.549240 161.000549,92.619339 
	C162.282196,92.571259 163.563965,92.975937 165.006104,93.689995 
z" data-index="78" style="opacity: 1;"></path>
<path fill="#7D466C" opacity="1.000000" stroke="none" d="
M137.181641,144.286102 
	C141.774033,146.219849 146.631668,148.277466 151.303970,150.693497 
	C162.185760,156.320496 172.989731,162.098770 183.789917,167.881714 
	C184.908356,168.480576 185.789124,169.523331 186.890686,170.679443 
	C176.695953,165.799103 166.378555,160.623306 156.090820,155.389252 
	C151.247650,152.925186 146.427017,150.411591 141.669098,147.788177 
	C140.115112,146.931335 138.791611,145.656494 137.181641,144.286102 
z" data-index="79"></path>
<path fill="#684E79" opacity="1.000000" stroke="none" d="
M186.111389,156.322510 
	C189.098434,157.286057 192.197693,158.570938 195.649078,159.927490 
	C197.142715,160.572998 198.284225,161.146835 199.712891,161.860046 
	C200.251373,162.498947 200.502716,162.998520 200.876709,163.749344 
	C196.074127,161.548355 191.148865,159.096100 186.111389,156.322510 
z" data-index="80"></path>
<path fill="#684E79" opacity="1.000000" stroke="none" d="
M231.888641,180.677628 
	C228.075043,178.880325 224.149292,176.761810 220.111465,174.322037 
	C223.925095,176.119308 227.850784,178.237854 231.888641,180.677628 
z" data-index="81"></path>
<path fill="#684E79" opacity="1.000000" stroke="none" d="
M212.891449,170.681229 
	C211.073364,169.877930 209.145767,168.757095 207.108643,167.318726 
	C208.926712,168.122040 210.854324,169.242859 212.891449,170.681229 
z" data-index="82"></path>
<path fill="#684E79" opacity="1.000000" stroke="none" d="
M216.334091,173.999268 
	C215.749039,173.500183 215.497482,173.000961 215.123260,172.250580 
	C215.922958,172.462219 216.845291,172.925064 217.884613,173.692734 
	C217.556900,173.998093 217.112244,173.998627 216.334091,173.999268 
z" data-index="83"></path>
<path fill="#684E79" opacity="1.000000" stroke="none" d="
M204.906952,166.711395 
	C204.397186,166.523071 203.792725,166.048386 203.093842,165.287155 
	C203.603683,165.475418 204.207962,165.950241 204.906952,166.711395 
z" data-index="84"></path>
<path fill="#684E79" opacity="1.000000" stroke="none" d="
M143.107513,133.321564 
	C147.924469,135.786972 152.850494,138.571823 157.888596,141.677887 
	C153.072632,139.213058 148.144608,136.427032 143.107513,133.321564 
z" data-index="85"></path>
<path fill="#684E79" opacity="1.000000" stroke="none" d="
M171.104584,148.313339 
	C172.263092,148.791580 173.526810,149.582550 174.895782,150.686157 
	C173.737289,150.207870 172.473526,149.416977 171.104584,148.313339 
z" data-index="86"></path>
<path fill="#684E79" opacity="1.000000" stroke="none" d="
M165.104431,145.313858 
	C166.262970,145.791702 167.526794,146.582199 168.896118,147.685150 
	C167.737640,147.207245 166.473679,146.416885 165.104431,145.313858 
z" data-index="87"></path>
</svg>